<?xml version="1.0" encoding="utf-8"?>
<!-- Generator: Adobe Illustrator 16.0.0, SVG Export Plug-In . SVG Version: 6.00 Build 0)  -->
<!DOCTYPE svg PUBLIC "-//W3C//DTD SVG 1.1//EN" "http://www.w3.org/Graphics/SVG/1.1/DTD/svg11.dtd">
<svg version="1.1" xmlns="http://www.w3.org/2000/svg" xmlns:xlink="http://www.w3.org/1999/xlink" x="0px" y="0px"
	 width="500px" height="480px" viewBox="0 90 580 400" enable-background="new 0 0 595.28 841.89" xml:space="preserve">
<g id="gameboy">
	<path fill-rule="evenodd" clip-rule="evenodd" fill="#C04149" d="M436.547,532.744c0,7.375-5.478,13.354-12.231,13.354H173.587
		c-6.755,0-12.231-5.979-12.231-13.354V77.273c0-7.375,5.477-13.353,12.231-13.353h250.729c6.754,0,12.231,5.978,12.231,13.353
		V532.744z"/>
	<path fill-rule="evenodd" clip-rule="evenodd" fill="#DB4D4D" d="M436.547,494.781c0,7.375-5.478,13.353-12.231,13.353H173.587
		c-6.755,0-12.231-5.978-12.231-13.353V39.31c0-7.375,5.477-13.353,12.231-13.353h250.729c6.754,0,12.231,5.978,12.231,13.353
		V494.781z"/>
	<path fill-rule="evenodd" clip-rule="evenodd" fill="#3A2355" d="M298.745,289.289c-31.549,0-63.098,0.015-94.648-0.006
		c-12.758-0.008-19-6.178-19.003-18.804c-0.016-62.558-0.016-125.115,0-187.672c0.003-12.629,6.257-18.867,18.958-18.871
		c63.098-0.019,126.197-0.019,189.294,0c12.741,0.004,19,6.209,19.004,18.826c0.018,62.557,0.018,125.115,0,187.672
		c-0.004,12.657-6.232,18.841-18.957,18.85C361.844,289.304,330.294,289.289,298.745,289.289z"/>
	<path fill-rule="evenodd" clip-rule="evenodd" fill="#3A2355" d="M323.409,369.434c0.083-11.881,9.463-21.076,21.425-21.005
		c11.833,0.07,21.133,9.532,21.046,21.415c-0.085,11.787-9.606,21.128-21.451,21.048
		C332.629,390.812,323.326,381.314,323.409,369.434z"/>
	<path fill-rule="evenodd" clip-rule="evenodd" fill="#3A2355" d="M385.901,359.712c-9.604-0.036-17.059-7.577-17.021-17.218
		c0.038-9.582,7.667-17.162,17.209-17.099c9.461,0.063,17.222,7.885,17.153,17.29C403.174,352.176,395.462,359.749,385.901,359.712z
		"/>
	<path fill-rule="evenodd" clip-rule="evenodd" fill="#614696" d="M339.84,259.821c4.623,4.003,4.636,6.117,0.06,9.99
		c-0.334,0.06-0.667,0.12-1.001,0.18c-26.783,0.333-53.567,0.331-80.351,0c-0.333-0.06-0.667-0.12-1.001-0.18
		c-4.583-3.888-4.571-5.993,0.057-9.99c0.331-0.072,0.661-0.146,0.992-0.218c26.75-0.385,53.501-0.384,80.252,0
		C339.179,259.675,339.509,259.748,339.84,259.821z"/>
	<path fill-rule="evenodd" clip-rule="evenodd" fill="#382152" d="M224.329,238.037c0-46.795,0-93.589,0-140.384
		c0.178,0,0.357,0,0.535,0c0,46.792,0,93.583,0,140.375C224.686,238.031,224.507,238.034,224.329,238.037z"/>
	<path fill-rule="evenodd" clip-rule="evenodd" fill="#382152" d="M372.444,237.938c0-46.663,0-93.326,0-139.99
		c0.176,0,0.353-0.001,0.53-0.002c0,46.727,0,93.453,0,140.179C372.797,238.063,372.62,238.001,372.444,237.938z"/>
	<path fill-rule="evenodd" clip-rule="evenodd" fill="#735CA7" d="M226.331,239.364c48.261,0,96.521,0,144.782,0
		c0.125,0.326,0.143,0.657,0.052,0.994c-1.839,1.622-4.097,1.138-6.21,1.139c-44.155,0.027-88.311,0.027-132.466,0
		c-2.114-0.001-4.371,0.482-6.211-1.139C226.188,240.021,226.206,239.689,226.331,239.364z"/>
	<path fill-rule="evenodd" clip-rule="evenodd" fill="#4F3875" d="M226.278,240.357c48.296,0,96.592,0,144.887,0
		c0.02,0.375,0.038,0.751,0.057,1.127c-1.481,0.983-3.152,0.553-4.734,0.554c-45.177,0.024-90.354,0.024-135.53,0
		c-1.583,0-3.252,0.43-4.735-0.554C226.241,241.109,226.26,240.733,226.278,240.357z"/>
	<path fill-rule="evenodd" clip-rule="evenodd" fill="#371F50" d="M226.222,241.484c48.333,0,96.667,0,145,0
		c-2.095,1.449-4.495,1.103-6.813,1.103c-43.791,0.014-87.582,0.014-131.373,0C230.717,242.587,228.317,242.933,226.222,241.484z"/>
	<path fill-rule="evenodd" clip-rule="evenodd" fill="#382152" d="M339.663,270.65c-0.794,1.878-2.479,1.123-3.764,1.125
		c-24.784,0.05-49.57,0.05-74.354,0c-1.286-0.002-2.97,0.754-3.764-1.125c1.538-1.273,3.394-0.983,5.159-0.985
		c23.854-0.023,47.709-0.023,71.563,0C336.27,269.667,338.125,269.378,339.663,270.65z"/>
	<path fill-rule="evenodd" clip-rule="evenodd" fill="#4B3271" d="M339.844,258.995c-0.015,0.275-0.016,0.55-0.004,0.826
		l-0.084,0.424c-27.355,0.341-54.712,0.341-82.067,0c0,0-0.085-0.424-0.085-0.424c0.013-0.275,0.012-0.551-0.003-0.826
		c1.034-1.052,2.364-0.688,3.583-0.689c25.025-0.02,50.052-0.02,75.077,0C337.479,258.307,338.81,257.943,339.844,258.995z"/>
	<path fill-rule="evenodd" clip-rule="evenodd" fill="#382151" d="M339.844,258.995c-27.414-0.001-54.828-0.002-82.243-0.002
		c1.841-1.495,4.047-1.236,6.179-1.237c23.295-0.012,46.589-0.012,69.884,0C335.796,257.757,338.001,257.498,339.844,258.995z"/>
	<path fill-rule="evenodd" clip-rule="evenodd" fill="#553A81" d="M339.663,270.65c-27.294,0-54.589,0-81.883,0
		c-0.081-0.279-0.159-0.559-0.233-0.84l0.212-0.428c19.765-0.632,39.534-0.159,59.301-0.242c7.539-0.032,15.089-0.369,22.625,0.242
		l0.214,0.428C339.825,270.092,339.746,270.372,339.663,270.65z"/>
	<path fill-rule="evenodd" clip-rule="evenodd" fill="#63489A" d="M257.688,260.245c27.355-0.555,54.712-0.554,82.067,0
		c-1.76,0.249-3.519,0.711-5.277,0.715c-23.838,0.048-47.675,0.047-71.513,0C261.206,260.956,259.447,260.494,257.688,260.245z"/>
	<path fill-rule="evenodd" clip-rule="evenodd" fill="#64489B" d="M339.686,269.383c-27.31,0.446-54.619,0.441-81.927,0.001
		c1.67-0.872,3.484-0.813,5.287-0.813c23.785-0.002,47.57-0.002,71.354,0C336.202,268.571,338.016,268.512,339.686,269.383z"/>
	<path fill-rule="evenodd" clip-rule="evenodd" fill="#3A2355" d="M242.287,361.566v11.454c0,3.992-3.306,7.23-7.378,7.23h-7.339
		v7.527c0,4.176-3.158,7.567-7.05,7.567h-11.168c-3.893,0-7.05-3.391-7.05-7.567v-7.527h-7.339c-4.08,0-7.378-3.238-7.378-7.23
		v-11.454c0-3.992,3.298-7.23,7.378-7.23h7.339v-7.535c0-4.176,3.157-7.559,7.05-7.559h11.168c3.893,0,7.05,3.382,7.05,7.559v7.535
		h7.339C238.98,354.336,242.287,357.574,242.287,361.566z"/>
	<path fill-rule="evenodd" clip-rule="evenodd" fill="#3A2355" d="M282.045,469.5c0,3.037-2.462,5.5-5.5,5.5h-43
		c-3.038,0-5.5-2.463-5.5-5.5l0,0c0-3.037,2.462-5.5,5.5-5.5h43C279.583,464,282.045,466.463,282.045,469.5L282.045,469.5z"/>
	<path fill-rule="evenodd" clip-rule="evenodd" fill="#3A2355" d="M367.234,469.5c0,3.037-2.463,5.5-5.5,5.5h-43
		c-3.037,0-5.5-2.463-5.5-5.5l0,0c0-3.037,2.463-5.5,5.5-5.5h43C364.771,464,367.234,466.463,367.234,469.5L367.234,469.5z"/>
</g>

<g id="display">

	<path fill-rule="evenodd" clip-rule="evenodd" fill="white" d="M403.243,216.091c0,7.369-5.579,13.343-12.463,13.343H206.796
		c-6.883,0-12.463-5.974-12.463-13.343V82.676c0-7.369,5.58-13.343,12.463-13.343H390.78c6.884,0,12.463,5.974,12.463,13.343
		V216.091z"/>
		
</g>
</svg>
